<svg width="384" height="205" viewBox="0 0 384 205" fill="none" xmlns="http://www.w3.org/2000/svg">
<path opacity="0.2" d="M378.793 7.51434L379.175 7.19103L378.793 7.51434ZM266.183 74.8879L266.428 74.4523L266.183 74.8879ZM161.172 81.7702L161.634 81.9613L161.172 81.7702ZM93.7887 156.585L94.0077 156.135C93.9826 156.123 93.9566 156.113 93.9298 156.105L93.7887 156.585ZM-0.487993 203.891C-0.548146 204.161 -0.378428 204.428 -0.108916 204.488C0.160595 204.548 0.42784 204.378 0.487993 204.109L-0.487993 203.891ZM0.829409 202.637C0.894059 202.368 0.728832 202.098 0.460365 202.034C0.191897 201.969 -0.0781487 202.134 -0.142799 202.403L0.829409 202.637ZM0.606879 199.506C0.533088 199.772 0.688985 200.048 0.955086 200.122C1.22119 200.195 1.49672 200.039 1.57051 199.773L0.606879 199.506ZM2.41844 196.917C2.50189 196.654 2.35614 196.373 2.09291 196.289C1.82968 196.206 1.54864 196.352 1.46519 196.615L2.41844 196.917ZM2.41853 193.793C2.32513 194.053 2.46008 194.34 2.71994 194.433C2.97981 194.526 3.26619 194.391 3.35959 194.132L2.41853 193.793ZM4.426 191.343C4.52992 191.087 4.40676 190.795 4.15092 190.692C3.89508 190.588 3.60343 190.711 3.49951 190.967L4.426 191.343ZM4.68766 188.21C4.57295 188.461 4.68359 188.758 4.93477 188.872C5.18596 188.987 5.48258 188.876 5.5973 188.625L4.68766 188.21ZM6.88139 185.97C7.00716 185.724 6.90984 185.423 6.664 185.297C6.41817 185.172 6.11692 185.269 5.99114 185.515L6.88139 185.97ZM7.43014 182.857C7.29297 183.097 7.37606 183.402 7.61572 183.539C7.85538 183.676 8.16087 183.593 8.29804 183.354L7.43014 182.857ZM9.82794 180.824C9.97657 180.591 9.9084 180.282 9.67567 180.134C9.44295 179.985 9.13379 180.053 8.98516 180.286L9.82794 180.824ZM10.6602 177.802C10.5001 178.027 10.5527 178.339 10.7777 178.499C11.0027 178.659 11.3149 178.606 11.475 178.381L10.6602 177.802ZM13.2591 176.006C13.4306 175.79 13.3943 175.475 13.1779 175.304C12.9615 175.132 12.647 175.168 12.4754 175.385L13.2591 176.006ZM14.4078 173.075C14.225 173.282 14.2448 173.598 14.4518 173.781C14.6589 173.963 14.9748 173.944 15.1575 173.736L14.4078 173.075ZM17.1694 171.576C17.363 171.379 17.3601 171.062 17.1631 170.869C16.9661 170.675 16.6496 170.678 16.4561 170.875L17.1694 171.576ZM18.6208 168.787C18.417 168.973 18.4028 169.289 18.5891 169.493C18.7754 169.697 19.0917 169.711 19.2955 169.525L18.6208 168.787ZM21.5354 167.586C21.749 167.411 21.7803 167.096 21.6052 166.882C21.4302 166.668 21.1151 166.637 20.9016 166.812L21.5354 167.586ZM23.2812 164.966C23.0586 165.13 23.0105 165.443 23.1739 165.665C23.3373 165.888 23.6502 165.936 23.8728 165.773L23.2812 164.966ZM26.3017 164.087C26.5326 163.935 26.597 163.625 26.4455 163.395C26.2941 163.164 25.9841 163.099 25.7532 163.251L26.3017 164.087ZM28.3102 161.667C28.0718 161.806 27.9915 162.112 28.1308 162.351C28.2702 162.589 28.5764 162.669 28.8148 162.53L28.3102 161.667ZM31.4077 161.101C31.6528 160.974 31.7483 160.672 31.6211 160.427C31.4939 160.182 31.1921 160.086 30.947 160.213L31.4077 161.101ZM33.652 158.892C33.401 159.008 33.2908 159.304 33.406 159.555C33.5211 159.806 33.8179 159.916 34.0689 159.801L33.652 158.892ZM36.789 158.63C37.0452 158.527 37.1691 158.236 37.0658 157.98C36.9626 157.724 36.6713 157.6 36.4151 157.703L36.789 158.63ZM39.2288 156.642C38.9683 156.734 38.8313 157.019 38.9229 157.28C39.0145 157.54 39.3 157.677 39.5605 157.586L39.2288 156.642ZM42.3758 156.664C42.6401 156.584 42.7892 156.305 42.7089 156.04C42.6287 155.776 42.3494 155.627 42.0852 155.707L42.3758 156.664ZM44.9785 154.894C44.7112 154.963 44.5506 155.236 44.6199 155.503C44.6891 155.771 44.9619 155.931 45.2293 155.862L44.9785 154.894ZM48.1152 155.176C48.385 155.117 48.5563 154.851 48.4977 154.581C48.4392 154.311 48.1729 154.14 47.9031 154.199L48.1152 155.176ZM50.8512 153.618C50.5793 153.666 50.3981 153.925 50.4464 154.197C50.4946 154.469 50.7542 154.65 51.0261 154.602L50.8512 153.618ZM53.9566 154.137C54.2301 154.099 54.4207 153.846 54.3823 153.572C54.344 153.299 54.0912 153.108 53.8177 153.147L53.9566 154.137ZM56.7975 152.782C56.5229 152.811 56.3236 153.057 56.3524 153.331C56.3812 153.606 56.6272 153.805 56.9019 153.776L56.7975 152.782ZM59.8571 153.517C60.1326 153.497 60.34 153.258 60.3204 152.982C60.3008 152.707 60.0617 152.5 59.7862 152.519L59.8571 153.517ZM62.7826 152.355C62.5067 152.366 62.2916 152.598 62.3023 152.874C62.313 153.15 62.5453 153.365 62.8212 153.354L62.7826 152.355ZM65.7924 153.286C66.0686 153.284 66.2908 153.059 66.2888 152.783C66.2868 152.507 66.0613 152.284 65.7851 152.286L65.7924 153.286ZM68.7876 152.31C68.5115 152.304 68.2825 152.523 68.2761 152.799C68.2697 153.075 68.4883 153.304 68.7644 153.31L68.7876 152.31ZM71.7341 153.423C72.0099 153.438 72.2453 153.226 72.2599 152.951C72.2745 152.675 72.0628 152.439 71.7871 152.425L71.7341 153.423ZM74.7809 152.628C74.5057 152.605 74.2642 152.81 74.2415 153.085C74.2188 153.36 74.4235 153.602 74.6988 153.624L74.7809 152.628ZM77.6558 153.911C77.9302 153.942 78.1776 153.745 78.2083 153.47C78.2389 153.196 78.0413 152.948 77.7669 152.918L77.6558 153.911ZM80.7429 153.294C80.4695 153.256 80.2165 153.446 80.1778 153.719C80.1392 153.993 80.3295 154.246 80.6029 154.284L80.7429 153.294ZM83.5377 154.744C83.8099 154.791 84.0684 154.608 84.1152 154.336C84.1619 154.064 83.9792 153.805 83.707 153.758L83.5377 154.744ZM86.6571 154.311C86.3865 154.256 86.1225 154.431 86.0675 154.701C86.0125 154.972 86.1872 155.236 86.4578 155.291L86.6571 154.311ZM89.3597 155.929C89.6284 155.993 89.8979 155.827 89.9616 155.558C90.0253 155.29 89.8591 155.02 89.5904 154.956L89.3597 155.929ZM92.5026 155.7C92.2363 155.627 91.9612 155.783 91.8882 156.05C91.8152 156.316 91.9719 156.591 92.2382 156.664L92.5026 155.7ZM94.9836 157.692C95.236 157.804 95.5314 157.691 95.6433 157.438C95.7553 157.186 95.6414 156.89 95.389 156.778L94.9836 157.692ZM98.1292 157.871C97.8689 157.779 97.5832 157.916 97.4912 158.176C97.3992 158.436 97.5357 158.722 97.7961 158.814L98.1292 157.871ZM100.701 159.699C100.969 159.768 101.241 159.606 101.309 159.339C101.378 159.071 101.216 158.799 100.949 158.73L100.701 159.699ZM103.856 159.319C103.583 159.278 103.329 159.467 103.288 159.74C103.248 160.013 103.436 160.267 103.71 160.308L103.856 159.319ZM106.763 160.586C107.039 160.595 107.27 160.379 107.279 160.103C107.288 159.827 107.072 159.596 106.796 159.587L106.763 160.586ZM109.738 159.506C109.463 159.531 109.26 159.773 109.284 160.048C109.309 160.324 109.552 160.527 109.827 160.502L109.738 159.506ZM112.858 160.038C113.127 159.979 113.298 159.713 113.24 159.443C113.181 159.173 112.914 159.002 112.645 159.061L112.858 160.038ZM115.474 158.257C115.214 158.348 115.077 158.634 115.169 158.894C115.26 159.155 115.546 159.292 115.806 159.2L115.474 158.257ZM118.63 158.017C118.879 157.897 118.982 157.597 118.861 157.349C118.74 157.101 118.44 156.998 118.192 157.119L118.63 158.017ZM120.774 155.686C120.54 155.832 120.468 156.14 120.614 156.375C120.761 156.609 121.069 156.68 121.303 156.534L120.774 155.686ZM123.813 154.8C124.033 154.633 124.076 154.319 123.909 154.099C123.742 153.879 123.428 153.836 123.209 154.003L123.813 154.8ZM125.495 152.115C125.289 152.299 125.271 152.615 125.455 152.821C125.639 153.026 125.956 153.044 126.161 152.86L125.495 152.115ZM128.356 150.756C128.549 150.558 128.545 150.242 128.348 150.049C128.15 149.856 127.833 149.86 127.641 150.058L128.356 150.756ZM129.655 147.864C129.474 148.073 129.497 148.389 129.706 148.569C129.914 148.75 130.23 148.728 130.411 148.519L129.655 147.864ZM132.339 146.175C132.509 145.957 132.471 145.643 132.253 145.473C132.035 145.303 131.721 145.341 131.551 145.559L132.339 146.175ZM133.34 143.162C133.179 143.386 133.232 143.699 133.456 143.859C133.681 144.019 133.994 143.967 134.154 143.742L133.34 143.162ZM135.866 141.241C136.018 141.011 135.954 140.701 135.723 140.549C135.492 140.397 135.182 140.461 135.03 140.692L135.866 141.241ZM136.628 138.17C136.484 138.406 136.559 138.714 136.794 138.858C137.03 139.002 137.337 138.927 137.482 138.692L136.628 138.17ZM139.019 136.092C139.156 135.852 139.073 135.547 138.833 135.409C138.593 135.272 138.288 135.355 138.151 135.595L139.019 136.092ZM139.606 132.974C139.475 133.217 139.565 133.521 139.809 133.652C140.052 133.783 140.355 133.692 140.486 133.449L139.606 132.974ZM141.89 130.771C142.016 130.525 141.918 130.224 141.672 130.098C141.426 129.973 141.125 130.07 140.999 130.316L141.89 130.771ZM142.335 127.633C142.215 127.881 142.318 128.18 142.567 128.301C142.815 128.422 143.114 128.318 143.235 128.07L142.335 127.633ZM144.528 125.346C144.645 125.095 144.536 124.798 144.285 124.682C144.035 124.566 143.738 124.674 143.621 124.925L144.528 125.346ZM144.864 122.192C144.752 122.445 144.865 122.74 145.117 122.853C145.37 122.965 145.665 122.852 145.778 122.6L144.864 122.192ZM146.987 119.836C147.096 119.582 146.979 119.288 146.725 119.179C146.472 119.07 146.178 119.187 146.069 119.441L146.987 119.836ZM147.237 116.676C147.131 116.931 147.252 117.224 147.507 117.33C147.762 117.436 148.055 117.315 148.161 117.06L147.237 116.676ZM149.304 114.27C149.407 114.014 149.284 113.723 149.028 113.619C148.771 113.516 148.48 113.64 148.377 113.896L149.304 114.27ZM149.49 111.104C149.389 111.361 149.515 111.652 149.772 111.753C150.029 111.854 150.319 111.728 150.42 111.471L149.49 111.104ZM151.513 108.666C151.612 108.408 151.484 108.119 151.226 108.02C150.969 107.92 150.679 108.049 150.58 108.306L151.513 108.666ZM151.652 105.499C151.555 105.757 151.685 106.045 151.943 106.143C152.201 106.241 152.49 106.111 152.588 105.853L151.652 105.499ZM153.649 103.031C153.746 102.772 153.615 102.484 153.356 102.387C153.097 102.291 152.809 102.422 152.712 102.681L153.649 103.031ZM153.762 99.8607C153.666 100.12 153.798 100.407 154.057 100.503C154.316 100.599 154.603 100.467 154.699 100.208L153.762 99.8607ZM155.742 97.3885C155.838 97.1295 155.705 96.8419 155.446 96.7463C155.187 96.6506 154.9 96.7831 154.804 97.0421L155.742 97.3885ZM155.844 94.2278C155.748 94.4867 155.88 94.7744 156.139 94.8702C156.398 94.966 156.686 94.8337 156.781 94.5748L155.844 94.2278ZM157.831 91.7493C157.927 91.4906 157.796 91.2026 157.537 91.106C157.278 91.0095 156.99 91.1409 156.894 91.3997L157.831 91.7493ZM157.956 88.5754C157.858 88.8336 157.988 89.1223 158.246 89.2202C158.504 89.3182 158.793 89.1882 158.891 88.9301L157.956 88.5754ZM159.969 86.1219C160.069 85.8645 159.941 85.5747 159.684 85.4746C159.427 85.3744 159.137 85.5019 159.037 85.7592L159.969 86.1219ZM160.148 82.9542C160.044 83.2103 160.168 83.5017 160.424 83.6051C160.68 83.7085 160.971 83.5849 161.075 83.3288L160.148 82.9542ZM162.201 80.5928C162.307 80.3378 162.186 80.0452 161.931 79.9392C161.676 79.8333 161.383 79.9541 161.277 80.2091L162.201 80.5928ZM162.438 77.4562C162.329 77.7099 162.446 78.004 162.7 78.113C162.954 78.2221 163.248 78.1049 163.357 77.8512L162.438 77.4562ZM164.556 75.1412C164.671 74.8901 164.561 74.5934 164.31 74.4785C164.059 74.3636 163.762 74.474 163.647 74.725L164.556 75.1412ZM164.936 72.0237C164.813 72.2708 164.913 72.5711 165.16 72.6944C165.407 72.8176 165.707 72.7173 165.831 72.4702L164.936 72.0237ZM167.205 69.8539C167.339 69.6125 167.252 69.3081 167.011 69.1741C166.769 69.0402 166.465 69.1273 166.331 69.3688L167.205 69.8539ZM167.857 66.7808C167.71 67.0146 167.781 67.3233 168.014 67.4701C168.248 67.617 168.557 67.5464 168.704 67.3126L167.857 66.7808ZM170.347 64.8701C170.509 64.6462 170.458 64.3336 170.234 64.172C170.01 64.0103 169.698 64.0607 169.536 64.2846L170.347 64.8701ZM171.388 61.9087C171.21 62.1198 171.237 62.4353 171.448 62.6133C171.659 62.7913 171.975 62.7644 172.153 62.5533L171.388 61.9087ZM174.135 60.3922C174.33 60.1969 174.33 59.8804 174.135 59.6851C173.939 59.4899 173.623 59.4899 173.428 59.6852L174.135 60.3922ZM175.66 57.6486C175.447 57.8249 175.418 58.1401 175.594 58.3527C175.771 58.5652 176.086 58.5945 176.298 58.4181L175.66 57.6486ZM178.64 56.6606C178.869 56.5059 178.929 56.1951 178.774 55.9663C178.62 55.7376 178.309 55.6775 178.08 55.8321L178.64 56.6606ZM180.671 54.2633C180.428 54.3943 180.337 54.6976 180.468 54.9407C180.599 55.1838 180.903 55.2746 181.146 55.1436L180.671 54.2633ZM183.783 53.8858C184.038 53.7792 184.158 53.4863 184.052 53.2316C183.945 52.9768 183.652 52.8567 183.397 52.9633L183.783 53.8858ZM186.235 51.9306C185.971 52.013 185.824 52.2934 185.907 52.557C185.989 52.8206 186.269 52.9674 186.533 52.8851L186.235 51.9306ZM189.367 52.1337C189.637 52.0743 189.807 51.8076 189.748 51.5379C189.689 51.2682 189.422 51.0977 189.152 51.1571L189.367 52.1337ZM192.125 50.6261C191.851 50.6642 191.66 50.9167 191.698 51.1903C191.736 51.4638 191.989 51.6546 192.262 51.6166L192.125 50.6261ZM195.189 51.3152C195.465 51.2964 195.673 51.0578 195.654 50.7823C195.635 50.5068 195.397 50.2987 195.121 50.3176L195.189 51.3152ZM198.11 50.2075C197.834 50.2093 197.612 50.4346 197.613 50.7108C197.615 50.9869 197.841 51.2093 198.117 51.2075L198.11 50.2075ZM201.052 51.2703C201.328 51.2836 201.563 51.0708 201.576 50.795C201.589 50.5191 201.376 50.2848 201.101 50.2715L201.052 51.2703ZM204.095 50.4905C203.82 50.4638 203.576 50.6649 203.549 50.9398C203.522 51.2146 203.724 51.4591 203.999 51.4858L204.095 50.4905ZM206.962 51.8401C207.235 51.8787 207.488 51.6883 207.527 51.4149C207.565 51.1415 207.375 50.8885 207.102 50.8499L206.962 51.8401ZM210.026 51.3206C209.755 51.2716 209.495 51.4523 209.446 51.7241C209.397 51.9958 209.577 52.2558 209.849 52.3047L210.026 51.3206ZM212.749 52.879C213.019 52.9372 213.285 52.7655 213.343 52.4955C213.401 52.2256 213.23 51.9596 212.96 51.9014L212.749 52.879ZM215.903 52.5843C215.635 52.5178 215.364 52.6812 215.297 52.9492C215.231 53.2172 215.394 53.4884 215.662 53.5548L215.903 52.5843ZM218.49 54.298C218.757 54.3717 219.032 54.2158 219.106 53.9496C219.18 53.6835 219.024 53.408 218.758 53.3343L218.49 54.298ZM221.661 54.1791C221.397 54.0987 221.118 54.2476 221.037 54.5118C220.957 54.776 221.106 55.0553 221.37 55.1357L221.661 54.1791ZM224.163 56.0205C224.425 56.1068 224.707 55.9641 224.794 55.7017C224.88 55.4394 224.737 55.1568 224.475 55.0705L224.163 56.0205ZM227.328 56.0426C227.068 55.9509 226.782 56.0877 226.69 56.3481C226.599 56.6086 226.735 56.8941 226.996 56.9858L227.328 56.0426ZM229.757 57.9878C230.016 58.0844 230.304 57.953 230.4 57.6943C230.497 57.4356 230.365 57.1476 230.107 57.051L229.757 57.9878ZM232.926 58.132C232.669 58.0309 232.378 58.1572 232.277 58.4142C232.176 58.6712 232.302 58.9614 232.559 59.0625L232.926 58.132ZM235.277 60.1569C235.532 60.2621 235.825 60.1403 235.93 59.885C236.035 59.6296 235.913 59.3374 235.658 59.2323L235.277 60.1569ZM238.462 60.412C238.208 60.303 237.914 60.4204 237.805 60.6741C237.696 60.9278 237.813 61.2219 238.067 61.3308L238.462 60.412ZM240.733 62.4973C240.985 62.6096 241.281 62.4963 241.393 62.244C241.505 61.9918 241.392 61.6962 241.14 61.5838L240.733 62.4973ZM243.883 62.8276C243.632 62.7119 243.335 62.8215 243.22 63.0723C243.104 63.323 243.214 63.6201 243.464 63.7357L243.883 62.8276ZM246.138 64.9881C246.388 65.1067 246.686 65.0007 246.805 64.7513C246.923 64.5019 246.817 64.2036 246.568 64.085L246.138 64.9881ZM249.245 65.3764C248.997 65.255 248.697 65.3577 248.576 65.6058C248.454 65.8538 248.557 66.1533 248.805 66.2746L249.245 65.3764ZM251.511 67.6163C251.758 67.7402 252.058 67.6407 252.182 67.394C252.306 67.1472 252.206 66.8467 251.96 66.7227L251.511 67.6163ZM254.568 68.0491C254.322 67.9228 254.021 68.0194 253.895 68.265C253.768 68.5105 253.865 68.812 254.11 68.9383L254.568 68.0491ZM256.763 70.3192C257.008 70.4479 257.31 70.354 257.439 70.1097C257.567 69.8653 257.473 69.563 257.229 69.4343L256.763 70.3192ZM259.872 70.8409C259.629 70.7101 259.326 70.8013 259.195 71.0445C259.065 71.2877 259.156 71.5909 259.399 71.7216L259.872 70.8409ZM261.978 73.1222C262.22 73.2549 262.524 73.1662 262.657 72.9241C262.79 72.682 262.701 72.378 262.459 72.2453L261.978 73.1222ZM265.093 73.7032C264.852 73.5685 264.547 73.6548 264.413 73.8959C264.278 74.137 264.364 74.4416 264.606 74.5762L265.093 73.7032ZM267.301 76.0812C267.543 76.2139 267.847 76.1251 267.979 75.8829C268.112 75.6408 268.023 75.3369 267.781 75.2042L267.301 76.0812ZM270.468 76.6344C270.223 76.5077 269.921 76.6038 269.794 76.8491C269.667 77.0945 269.764 77.3961 270.009 77.5228L270.468 76.6344ZM272.693 78.8676C272.941 78.9882 273.241 78.8846 273.361 78.6361C273.482 78.3877 273.378 78.0886 273.13 77.968L272.693 78.8676ZM275.873 79.2553C275.622 79.1413 275.325 79.2529 275.211 79.5044C275.098 79.756 275.209 80.0522 275.461 80.1662L275.873 79.2553ZM278.26 81.3881C278.515 81.495 278.808 81.3753 278.915 81.1207C279.022 80.8661 278.902 80.573 278.647 80.4661L278.26 81.3881ZM281.392 81.5734C281.135 81.4738 280.845 81.6018 280.745 81.8593C280.646 82.1169 280.774 82.4064 281.031 82.5061L281.392 81.5734ZM283.931 83.5775C284.191 83.6692 284.477 83.5324 284.569 83.2719C284.66 83.0114 284.523 82.7259 284.263 82.6342L283.931 83.5775ZM287.107 83.5859C286.843 83.5024 286.562 83.6481 286.479 83.9113C286.395 84.1746 286.541 84.4556 286.804 84.5391L287.107 83.5859ZM289.712 85.4097C289.978 85.4845 290.254 85.3297 290.329 85.0639C290.404 84.7981 290.249 84.5219 289.983 84.4471L289.712 85.4097ZM292.912 85.2179C292.643 85.1523 292.373 85.3165 292.307 85.5847C292.241 85.8529 292.406 86.1236 292.674 86.1892L292.912 85.2179ZM295.602 86.8522C295.872 86.9084 296.137 86.7348 296.193 86.4645C296.25 86.1941 296.076 85.9294 295.806 85.8732L295.602 86.8522ZM298.801 86.4384C298.529 86.3923 298.271 86.5756 298.224 86.8479C298.178 87.1202 298.362 87.3783 298.634 87.4244L298.801 86.4384ZM301.623 87.8729C301.897 87.9086 302.148 87.7157 302.183 87.4419C302.219 87.168 302.026 86.9171 301.752 86.8813L301.623 87.8729ZM304.758 87.2141C304.483 87.1891 304.24 87.3919 304.215 87.6669C304.19 87.9419 304.393 88.1851 304.668 88.21L304.758 87.2141ZM307.699 88.4234C307.975 88.4372 308.21 88.2248 308.223 87.949C308.237 87.6732 308.025 87.4384 307.749 87.4246L307.699 88.4234ZM310.757 87.5127C310.481 87.5104 310.255 87.7324 310.252 88.0085C310.25 88.2846 310.472 88.5104 310.748 88.5127L310.757 87.5127ZM313.796 88.4738C314.072 88.4644 314.288 88.2331 314.279 87.9571C314.269 87.6811 314.038 87.465 313.762 87.4744L313.796 88.4738ZM316.759 87.3075C316.484 87.3288 316.278 87.5693 316.3 87.8446C316.321 88.1199 316.561 88.3259 316.837 88.3045L316.759 87.3075ZM319.873 88.0021C320.148 87.9687 320.343 87.7194 320.309 87.4453C320.276 87.1712 320.027 86.9761 319.752 87.0095L319.873 88.0021ZM322.723 86.5805C322.45 86.6261 322.266 86.8838 322.312 87.1561C322.357 87.4285 322.615 87.6124 322.887 87.5668L322.723 86.5805ZM325.886 86.9964C326.156 86.9387 326.328 86.673 326.27 86.403C326.212 86.1329 325.947 85.9608 325.677 86.0185L325.886 86.9964ZM328.598 85.3256C328.331 85.3953 328.171 85.6685 328.241 85.9357C328.31 86.2029 328.583 86.3629 328.851 86.2932L328.598 85.3256ZM331.784 85.4569C332.047 85.3753 332.195 85.0953 332.113 84.8315C332.032 84.5677 331.752 84.42 331.488 84.5017L331.784 85.4569ZM334.338 83.549C334.078 83.6424 333.943 83.9287 334.037 84.1886C334.13 84.4485 334.417 84.5835 334.676 84.4901L334.338 83.549ZM337.52 83.3966C337.776 83.2918 337.898 82.9997 337.793 82.7442C337.688 82.4887 337.396 82.3666 337.141 82.4714L337.52 83.3966ZM339.898 81.2687C339.648 81.3846 339.539 81.6817 339.655 81.9324C339.771 82.183 340.068 82.2922 340.318 82.1763L339.898 81.2687ZM343.053 80.8388C343.298 80.7121 343.394 80.4105 343.268 80.1652C343.141 79.9198 342.839 79.8235 342.594 79.9502L343.053 80.8388ZM345.24 78.5116C345 78.6487 344.917 78.9541 345.054 79.1938C345.191 79.4336 345.496 79.5168 345.736 79.3797L345.24 78.5116ZM348.343 77.8153C348.577 77.6683 348.647 77.3596 348.5 77.1259C348.353 76.8921 348.045 76.8218 347.811 76.9688L348.343 77.8153ZM350.329 75.3111C350.102 75.4677 350.044 75.779 350.201 76.0064C350.357 76.2339 350.669 76.2914 350.896 76.1348L350.329 75.3111ZM353.367 74.3589C353.588 74.1933 353.633 73.8799 353.467 73.6589C353.301 73.438 352.988 73.3932 352.767 73.5589L353.367 74.3589ZM355.14 71.7036C354.926 71.8779 354.894 72.1929 355.068 72.407C355.243 72.6211 355.558 72.6533 355.772 72.479L355.14 71.7036ZM358.095 70.5095C358.303 70.3269 358.322 70.0109 358.14 69.8038C357.957 69.5967 357.641 69.5768 357.434 69.7595L358.095 70.5095ZM359.652 67.7262C359.452 67.9167 359.444 68.2332 359.635 68.4331C359.825 68.633 360.142 68.6406 360.342 68.4501L359.652 67.7262ZM362.509 66.3044C362.701 66.1064 362.697 65.7898 362.499 65.5973C362.301 65.4048 361.984 65.4093 361.792 65.6073L362.509 66.3044ZM363.844 63.4151C363.659 63.6202 363.675 63.9363 363.881 64.1212C364.086 64.3061 364.402 64.2898 364.587 64.0847L363.844 63.4151ZM366.589 61.7781C366.766 61.5662 366.738 61.2509 366.526 61.0738C366.315 60.8967 365.999 60.9249 365.822 61.1367L366.589 61.7781ZM367.705 58.7976C367.536 59.0159 367.576 59.33 367.794 59.4991C368.012 59.6682 368.326 59.6284 368.495 59.4101L367.705 58.7976ZM370.32 56.9625C370.481 56.7381 370.43 56.4257 370.205 56.2648C369.981 56.1039 369.668 56.1554 369.507 56.3798L370.32 56.9625ZM371.216 53.9014C371.063 54.1316 371.126 54.4419 371.356 54.5943C371.587 54.7467 371.897 54.6836 372.049 54.4534L371.216 53.9014ZM373.68 51.8871C373.824 51.6513 373.749 51.3437 373.513 51.2C373.277 51.0563 372.97 51.131 372.826 51.3668L373.68 51.8871ZM374.347 48.7587C374.213 48.9999 374.299 49.3044 374.54 49.4389C374.782 49.5735 375.086 49.487 375.221 49.2459L374.347 48.7587ZM376.65 46.563C376.775 46.3168 376.676 46.0158 376.43 45.8908C376.184 45.7658 375.883 45.8641 375.758 46.1103L376.65 46.563ZM377.067 43.398C376.952 43.6491 377.063 43.9458 377.314 44.0608C377.565 44.1757 377.861 44.0653 377.976 43.8142L377.067 43.398ZM379.19 41.0092C379.294 40.7534 379.171 40.4616 378.916 40.3574C378.66 40.2532 378.368 40.376 378.264 40.6317L379.19 41.0092ZM379.333 37.8356C379.24 38.0957 379.375 38.3818 379.636 38.4746C379.896 38.5674 380.182 38.4318 380.274 38.1717L379.333 37.8356ZM381.234 35.2673C381.315 35.0031 381.166 34.7238 380.902 34.6435C380.637 34.5631 380.358 34.7122 380.278 34.9764L381.234 35.2673ZM381.08 32.0739C381.014 32.3418 381.177 32.6131 381.445 32.6797C381.713 32.7463 381.984 32.583 382.051 32.315L381.08 32.0739ZM382.704 29.3361C382.755 29.0648 382.577 28.8032 382.306 28.7518C382.034 28.7004 381.773 28.8787 381.721 29.15L382.704 29.3361ZM382.185 26.207C382.151 26.481 382.345 26.7309 382.619 26.7651C382.893 26.7993 383.143 26.6048 383.177 26.3308L382.185 26.207ZM383.45 23.2615C383.464 22.9857 383.252 22.7507 382.976 22.7365C382.701 22.7224 382.465 22.9344 382.451 23.2102L383.45 23.2615ZM382.481 20.2175C382.491 20.4935 382.722 20.7097 382.998 20.7004C383.274 20.691 383.49 20.4598 383.481 20.1838L382.481 20.2175ZM383.226 17.1151C383.189 16.8415 382.937 16.6499 382.663 16.6871C382.389 16.7243 382.198 16.9763 382.235 17.2499L383.226 17.1151ZM381.661 14.3431C381.732 14.6101 382.006 14.7691 382.273 14.6984C382.539 14.6277 382.699 14.354 382.628 14.087L381.661 14.3431ZM381.616 11.1582C381.505 10.9052 381.21 10.7896 380.957 10.9001C380.704 11.0107 380.589 11.3054 380.699 11.5585L381.616 11.1582ZM379.291 8.99341C379.446 9.22158 379.757 9.28045 379.986 9.12491C380.214 8.96937 380.273 8.65831 380.117 8.43014L379.291 8.99341ZM378.095 5.99822C377.902 5.79996 377.586 5.79506 377.388 5.98728C377.189 6.1795 377.184 6.49604 377.377 6.6943L378.095 5.99822ZM375.105 4.67771C375.325 4.84388 375.639 4.79981 375.805 4.57926C375.971 4.35872 375.927 4.04522 375.707 3.87904L375.105 4.67771ZM372.984 2.18832C372.737 2.06532 372.437 2.16603 372.314 2.41326C372.191 2.6605 372.291 2.96063 372.539 3.08363L372.984 2.18832ZM369.716 2.01595C369.983 2.08703 370.256 1.92833 370.328 1.66149C370.399 1.39465 370.24 1.12072 369.973 1.04964L369.716 2.01595ZM366.802 0.535355C366.526 0.51777 366.288 0.726918 366.271 1.0025C366.253 1.27808 366.462 1.51574 366.738 1.53333L366.802 0.535355ZM363.708 1.61086C363.983 1.58056 364.181 1.33348 364.15 1.05901C364.12 0.784534 363.873 0.586596 363.598 0.616901L363.708 1.61086ZM360.458 1.20257C360.19 1.27191 360.03 1.54481 360.099 1.8121C360.168 2.0794 360.441 2.23987 360.709 2.17054L360.458 1.20257ZM357.799 3.11459C358.056 3.01491 358.184 2.72533 358.085 2.46781C357.985 2.21029 357.695 2.08234 357.438 2.18203L357.799 3.11459ZM354.542 3.46672C354.295 3.58991 354.194 3.89012 354.317 4.13726C354.441 4.3844 354.741 4.48488 354.988 4.36169L354.542 3.46672ZM352.282 5.84555C352.519 5.70399 352.596 5.39703 352.455 5.15993C352.313 4.92283 352.006 4.84538 351.769 4.98694L352.282 5.84555ZM349.116 6.68943C348.889 6.84559 348.831 7.15681 348.987 7.38455C349.143 7.6123 349.454 7.67033 349.682 7.51417L349.116 6.68943ZM347.176 9.33491C347.395 9.16687 347.437 8.853 347.269 8.63388C347.101 8.41475 346.787 8.37335 346.568 8.54139L347.176 9.33491ZM344.117 10.5135C343.906 10.6914 343.879 11.0068 344.057 11.218C344.235 11.4292 344.55 11.4562 344.762 11.2783L344.117 10.5135ZM342.43 13.3259C342.634 13.1396 342.648 12.8233 342.462 12.6195C342.276 12.4157 341.959 12.4015 341.756 12.5878L342.43 13.3259ZM339.476 14.75C339.279 14.9436 339.277 15.2601 339.47 15.457C339.664 15.654 339.98 15.6566 340.177 15.463L339.476 14.75ZM337.999 17.6783C338.19 17.4782 338.182 17.1617 337.982 16.9714C337.782 16.7811 337.465 16.789 337.275 16.9891L337.999 17.6783ZM335.148 19.2975C334.964 19.5035 334.982 19.8195 335.188 20.0034C335.394 20.1873 335.71 20.1694 335.894 19.9634L335.148 19.2975ZM333.86 22.3137C334.037 22.1021 334.01 21.7868 333.798 21.6093C333.587 21.4318 333.271 21.4594 333.094 21.6709L333.86 22.3137ZM331.112 24.1081C330.942 24.3251 330.979 24.6395 331.196 24.8103C331.413 24.9811 331.727 24.9437 331.898 24.7267L331.112 24.1081ZM330.02 27.194C330.183 26.9714 330.136 26.6585 329.913 26.4949C329.691 26.3314 329.378 26.3792 329.214 26.6017L330.02 27.194ZM0.487993 204.109C0.59851 203.614 0.712333 203.123 0.829409 202.637L-0.142799 202.403C-0.26119 202.894 -0.376271 203.391 -0.487993 203.891L0.487993 204.109ZM1.57051 199.773C1.83976 198.802 2.12255 197.85 2.41844 196.917L1.46519 196.615C1.16557 197.56 0.879325 198.524 0.606879 199.506L1.57051 199.773ZM3.35959 194.132C3.70102 193.182 4.05667 192.252 4.426 191.343L3.49951 190.967C3.125 191.889 2.7645 192.831 2.41853 193.793L3.35959 194.132ZM5.5973 188.625C6.01121 187.719 6.43945 186.834 6.88139 185.97L5.99114 185.515C5.54237 186.392 5.10768 187.29 4.68766 188.21L5.5973 188.625ZM8.29804 183.354C8.79366 182.488 9.30386 181.645 9.82794 180.824L8.98516 180.286C8.45231 181.12 7.93374 181.977 7.43014 182.857L8.29804 183.354ZM11.475 178.381C12.0554 177.566 12.6504 176.774 13.2591 176.006L12.4754 175.385C11.8559 176.166 11.2506 176.972 10.6602 177.802L11.475 178.381ZM15.1575 173.736C15.8146 172.992 16.4855 172.272 17.1694 171.576L16.4561 170.875C15.7597 171.584 15.0766 172.317 14.4078 173.075L15.1575 173.736ZM19.2955 169.525C20.0295 168.854 20.7765 168.208 21.5354 167.586L20.9016 166.812C20.1288 167.446 19.3683 168.103 18.6208 168.787L19.2955 169.525ZM23.8728 165.773C24.6713 165.187 25.4813 164.625 26.3017 164.087L25.7532 163.251C24.9184 163.798 24.094 164.37 23.2812 164.966L23.8728 165.773ZM28.8148 162.53C29.6697 162.03 30.5344 161.554 31.4077 161.101L30.947 160.213C30.0591 160.674 29.1798 161.158 28.3102 161.667L28.8148 162.53ZM34.0689 159.801C34.9683 159.389 35.8754 158.999 36.789 158.63L36.4151 157.703C35.4873 158.077 34.5659 158.473 33.652 158.892L34.0689 159.801ZM39.5605 157.586C40.4938 157.257 41.4327 156.951 42.3758 156.664L42.0852 155.707C41.1286 155.998 40.176 156.309 39.2288 156.642L39.5605 157.586ZM45.2293 155.862C46.1884 155.614 47.1508 155.385 48.1152 155.176L47.9031 154.199C46.9261 154.411 45.9508 154.642 44.9785 154.894L45.2293 155.862ZM51.0261 154.602C52.0026 154.429 52.9799 154.274 53.9566 154.137L53.8177 153.147C52.8292 153.285 51.84 153.442 50.8512 153.618L51.0261 154.602ZM56.9019 153.776C57.8892 153.673 58.8747 153.587 59.8571 153.517L59.7862 152.519C58.7929 152.59 57.7962 152.677 56.7975 152.782L56.9019 153.776ZM62.8212 153.354C63.8167 153.316 64.8076 153.294 65.7924 153.286L65.7851 152.286C64.7901 152.294 63.7888 152.316 62.7826 152.355L62.8212 153.354ZM68.7644 153.31C69.7627 153.333 70.7531 153.371 71.7341 153.423L71.7871 152.425C70.7963 152.372 69.796 152.334 68.7876 152.31L68.7644 153.31ZM74.6988 153.624C75.6968 153.707 76.6831 153.803 77.6558 153.911L77.7669 152.918C76.7847 152.808 75.7888 152.711 74.7809 152.628L74.6988 153.624ZM80.6029 154.284C81.5989 154.425 82.5779 154.579 83.5377 154.744L83.707 153.758C82.7375 153.592 81.7488 153.437 80.7429 153.294L80.6029 154.284ZM86.4578 155.291C87.4507 155.493 88.4189 155.706 89.3597 155.929L89.5904 154.956C88.6391 154.731 87.6604 154.515 86.6571 154.311L86.4578 155.291ZM92.2382 156.664C92.717 156.795 93.1869 156.929 93.6476 157.064L93.9298 156.105C93.4632 155.968 92.9873 155.833 92.5026 155.7L92.2382 156.664ZM93.5697 157.034C94.0442 157.266 94.5155 157.485 94.9836 157.692L95.389 156.778C94.9321 156.576 94.4717 156.361 94.0077 156.135L93.5697 157.034ZM97.7961 158.814C98.7788 159.161 99.7471 159.456 100.701 159.699L100.949 158.73C100.025 158.495 99.0849 158.209 98.1292 157.871L97.7961 158.814ZM103.71 160.308C104.745 160.461 105.762 160.553 106.763 160.586L106.796 159.587C105.834 159.555 104.855 159.467 103.856 159.319L103.71 160.308ZM109.827 160.502C110.857 160.41 111.867 160.254 112.858 160.038L112.645 159.061C111.694 159.268 110.726 159.418 109.738 159.506L109.827 160.502ZM115.806 159.2C116.767 158.862 117.708 158.467 118.63 158.017L118.192 157.119C117.304 157.552 116.398 157.932 115.474 158.257L115.806 159.2ZM121.303 156.534C122.157 156.001 122.994 155.422 123.813 154.8L123.209 154.003C122.412 154.608 121.601 155.17 120.774 155.686L121.303 156.534ZM126.161 152.86C126.907 152.194 127.639 151.491 128.356 150.756L127.641 150.058C126.938 150.778 126.223 151.464 125.495 152.115L126.161 152.86ZM130.411 148.519C131.065 147.764 131.708 146.982 132.339 146.175L131.551 145.559C130.93 146.353 130.298 147.123 129.655 147.864L130.411 148.519ZM134.154 143.742C134.734 142.929 135.305 142.094 135.866 141.241L135.03 140.692C134.476 141.535 133.913 142.359 133.34 143.162L134.154 143.742ZM137.482 138.692C138.002 137.84 138.515 136.973 139.019 136.092L138.151 135.595C137.651 136.468 137.144 137.327 136.628 138.17L137.482 138.692ZM140.486 133.449C140.961 132.567 141.429 131.674 141.89 130.771L140.999 130.316C140.542 131.213 140.077 132.099 139.606 132.974L140.486 133.449ZM143.235 128.07C143.672 127.169 144.103 126.261 144.528 125.346L143.621 124.925C143.199 125.834 142.77 126.738 142.335 127.633L143.235 128.07ZM145.778 122.6C146.187 121.683 146.59 120.761 146.987 119.836L146.069 119.441C145.673 120.362 145.271 121.28 144.864 122.192L145.778 122.6ZM148.161 117.06C148.547 116.131 148.928 115.201 149.304 114.27L148.377 113.896C148.002 114.823 147.622 115.751 147.237 116.676L148.161 117.06ZM150.42 111.471C150.789 110.534 151.153 109.599 151.513 108.666L150.58 108.306C150.221 109.237 149.858 110.17 149.49 111.104L150.42 111.471ZM152.588 105.853C152.946 104.907 153.3 103.966 153.649 103.031L152.712 102.681C152.363 103.615 152.01 104.555 151.652 105.499L152.588 105.853ZM154.699 100.208C155.051 99.2596 155.398 98.319 155.742 97.3885L154.804 97.0421C154.46 97.9726 154.113 98.9127 153.762 99.8607L154.699 100.208ZM156.781 94.5748C157.135 93.6192 157.485 92.6767 157.831 91.7493L156.894 91.3997C156.547 92.3283 156.197 93.2717 155.844 94.2278L156.781 94.5748ZM158.891 88.9301C159.253 87.9734 159.613 87.0366 159.969 86.1219L159.037 85.7592C158.679 86.6771 158.319 87.6167 157.956 88.5754L158.891 88.9301ZM161.075 83.3288C161.262 82.8657 161.448 82.4098 161.634 81.9613L160.71 81.579C160.523 82.0302 160.336 82.4887 160.148 82.9542L161.075 83.3288ZM161.634 81.9613C161.821 81.5086 162.01 81.0523 162.201 80.5928L161.277 80.2091C161.086 80.6694 160.897 81.1264 160.71 81.579L161.634 81.9613ZM163.357 77.8512C163.743 76.9516 164.142 76.0466 164.556 75.1412L163.647 74.725C163.229 75.639 162.827 76.5513 162.438 77.4562L163.357 77.8512ZM165.831 72.4702C166.269 71.5916 166.726 70.718 167.205 69.8539L166.331 69.3688C165.844 70.2471 165.38 71.1338 164.936 72.0237L165.831 72.4702ZM168.704 67.3126C169.225 66.4826 169.772 65.6669 170.347 64.8701L169.536 64.2846C168.947 65.1003 168.389 65.9341 167.857 66.7808L168.704 67.3126ZM172.153 62.5533C172.781 61.8086 173.44 61.0867 174.135 60.3922L173.428 59.6852C172.712 60.4008 172.034 61.1436 171.388 61.9087L172.153 62.5533ZM176.298 58.4181C177.042 57.8013 177.821 57.2141 178.64 56.6606L178.08 55.8321C177.233 56.4045 176.428 57.0115 175.66 57.6486L176.298 58.4181ZM181.146 55.1436C181.987 54.6904 182.865 54.27 183.783 53.8858L183.397 52.9633C182.449 53.3602 181.541 53.7947 180.671 54.2633L181.146 55.1436ZM186.533 52.8851C187.441 52.6011 188.385 52.3498 189.367 52.1337L189.152 51.1571C188.143 51.3792 187.171 51.6379 186.235 51.9306L186.533 52.8851ZM192.262 51.6166C193.206 51.4853 194.181 51.3842 195.189 51.3152L195.121 50.3176C194.09 50.3881 193.092 50.4915 192.125 50.6261L192.262 51.6166ZM198.117 51.2075C199.068 51.2013 200.046 51.2218 201.052 51.2703L201.101 50.2715C200.077 50.2221 199.08 50.2012 198.11 50.2075L198.117 51.2075ZM203.999 51.4858C204.962 51.5793 205.949 51.6971 206.962 51.8401L207.102 50.8499C206.075 50.705 205.074 50.5855 204.095 50.4905L203.999 51.4858ZM209.849 52.3047C210.795 52.4751 211.762 52.6663 212.749 52.879L212.96 51.9014C211.962 51.6864 210.984 51.493 210.026 51.3206L209.849 52.3047ZM215.662 53.5548C216.588 53.7844 217.53 54.0319 218.49 54.298L218.758 53.3343C217.789 53.0659 216.837 52.816 215.903 52.5843L215.662 53.5548ZM221.37 55.1357C222.286 55.4144 223.216 55.7092 224.163 56.0205L224.475 55.0705C223.522 54.757 222.584 54.46 221.661 54.1791L221.37 55.1357ZM226.996 56.9858C227.903 57.3052 228.823 57.6391 229.757 57.9878L230.107 57.051C229.167 56.7001 228.241 56.3641 227.328 56.0426L226.996 56.9858ZM232.559 59.0625C233.453 59.4141 234.359 59.7789 235.277 60.1569L235.658 59.2323C234.735 58.8522 233.824 58.4855 232.926 58.132L232.559 59.0625ZM238.067 61.3308C238.945 61.7078 239.833 62.0965 240.733 62.4973L241.14 61.5838C240.236 61.1813 239.344 60.7908 238.462 60.412L238.067 61.3308ZM243.464 63.7357C244.345 64.1419 245.237 64.5594 246.138 64.9881L246.568 64.085C245.663 63.6546 244.768 63.2355 243.883 62.8276L243.464 63.7357ZM248.805 66.2746C249.697 66.711 250.599 67.1582 251.511 67.6163L251.96 66.7227C251.045 66.2631 250.14 65.8143 249.245 65.3764L248.805 66.2746ZM254.11 68.9383C254.986 69.3888 255.87 69.849 256.763 70.3192L257.229 69.4343C256.333 68.9627 255.446 68.501 254.568 68.0491L254.11 68.9383ZM259.399 71.7216C260.251 72.1796 261.11 72.6464 261.978 73.1222L262.459 72.2453C261.589 71.7683 260.727 71.3002 259.872 70.8409L259.399 71.7216ZM264.606 74.5762C265.047 74.8231 265.491 75.0721 265.937 75.3235L266.428 74.4523C265.981 74.2004 265.536 73.9506 265.093 73.7032L264.606 74.5762ZM265.937 75.3235C266.393 75.5802 266.847 75.8327 267.301 76.0812L267.781 75.2042C267.331 74.9577 266.88 74.7071 266.428 74.4523L265.937 75.3235ZM270.009 77.5228C270.908 77.9872 271.802 78.4353 272.693 78.8676L273.13 77.968C272.247 77.5394 271.359 77.0949 270.468 76.6344L270.009 77.5228ZM275.461 80.1662C276.399 80.591 277.332 80.9982 278.26 81.3881L278.647 80.4661C277.728 80.0798 276.803 79.6763 275.873 79.2553L275.461 80.1662ZM281.031 82.5061C282.003 82.8821 282.97 83.2391 283.931 83.5775L284.263 82.6342C283.312 82.2993 282.355 81.9458 281.392 81.5734L281.031 82.5061ZM286.804 84.5391C287.779 84.8484 288.749 85.1385 289.712 85.4097L289.983 84.4471C289.03 84.1789 288.071 83.8919 287.107 83.5859L286.804 84.5391ZM292.674 86.1892C293.656 86.4297 294.632 86.6505 295.602 86.8522L295.806 85.8732C294.848 85.6739 293.883 85.4556 292.912 85.2179L292.674 86.1892ZM298.634 87.4244C299.637 87.5943 300.634 87.7436 301.623 87.8729L301.752 86.8813C300.776 86.7537 299.792 86.6062 298.801 86.4384L298.634 87.4244ZM304.668 88.21C305.686 88.3023 306.697 88.3732 307.699 88.4234L307.749 87.4246C306.76 87.3751 305.763 87.3052 304.758 87.2141L304.668 88.21ZM310.748 88.5127C311.773 88.5213 312.789 88.5081 313.796 88.4738L313.762 87.4744C312.769 87.5082 311.767 87.5212 310.757 87.5127L310.748 88.5127ZM316.837 88.3045C317.859 88.2253 318.871 88.1243 319.873 88.0021L319.752 87.0095C318.765 87.1299 317.767 87.2295 316.759 87.3075L316.837 88.3045ZM322.887 87.5668C323.898 87.3979 324.897 87.2075 325.886 86.9964L325.677 86.0185C324.703 86.2265 323.718 86.4141 322.723 86.5805L322.887 87.5668ZM328.851 86.2932C329.84 86.035 330.818 85.7559 331.784 85.4569L331.488 84.5017C330.536 84.7962 329.573 85.0712 328.598 85.3256L328.851 86.2932ZM334.676 84.4901C335.637 84.1451 336.585 83.7802 337.52 83.3966L337.141 82.4714C336.219 82.8495 335.285 83.209 334.338 83.549L334.676 84.4901ZM340.318 82.1763C341.243 81.7486 342.154 81.3024 343.053 80.8388L342.594 79.9502C341.708 80.4073 340.81 80.8471 339.898 81.2687L340.318 82.1763ZM345.736 79.3797C346.619 78.8748 347.488 78.353 348.343 77.8153L347.811 76.9688C346.968 77.4991 346.11 78.0137 345.24 78.5116L345.736 79.3797ZM350.896 76.1348C351.735 75.5578 352.558 74.9654 353.367 74.3589L352.767 73.5589C351.969 74.1574 351.156 74.7418 350.329 75.3111L350.896 76.1348ZM355.772 72.479C356.562 71.8356 357.337 71.1787 358.095 70.5095L357.434 69.7595C356.685 70.4201 355.92 71.0685 355.14 71.7036L355.772 72.479ZM360.342 68.4501C361.08 67.746 361.803 67.0304 362.509 66.3044L361.792 65.6073C361.095 66.3243 360.381 67.031 359.652 67.7262L360.342 68.4501ZM364.587 64.0847C365.272 63.325 365.939 62.5557 366.589 61.7781L365.822 61.1367C365.18 61.9048 364.521 62.6647 363.844 63.4151L364.587 64.0847ZM368.495 59.4101C369.122 58.6012 369.731 57.7849 370.32 56.9625L369.507 56.3798C368.925 57.1922 368.324 57.9985 367.705 58.7976L368.495 59.4101ZM372.049 54.4534C372.613 53.6024 373.156 52.7465 373.68 51.8871L372.826 51.3668C372.309 52.2155 371.772 53.0609 371.216 53.9014L372.049 54.4534ZM375.221 49.2459C375.719 48.3533 376.195 47.4585 376.65 46.563L375.758 46.1103C375.309 46.9941 374.839 47.8775 374.347 48.7587L375.221 49.2459ZM377.976 43.8142C378.405 42.8777 378.81 41.9421 379.19 41.0092L378.264 40.6317C377.889 41.5515 377.49 42.4741 377.067 43.398L377.976 43.8142ZM380.274 38.1717C380.622 37.198 380.942 36.2292 381.234 35.2673L380.278 34.9764C379.99 35.9228 379.675 36.8766 379.333 37.8356L380.274 38.1717ZM382.051 32.315C382.3 31.3111 382.518 30.3173 382.704 29.3361L381.721 29.15C381.539 30.1122 381.325 31.0876 381.08 32.0739L382.051 32.315ZM383.177 26.3308C383.307 25.2888 383.399 24.2646 383.45 23.2615L382.451 23.2102C382.401 24.1879 382.312 25.1879 382.185 26.207L383.177 26.3308ZM383.481 20.1838C383.445 19.1301 383.361 18.1057 383.226 17.1151L382.235 17.2499C382.365 18.2047 382.447 19.1953 382.481 20.2175L383.481 20.1838ZM382.628 14.087C382.356 13.0604 382.019 12.0819 381.616 11.1582L380.699 11.5585C381.081 12.4319 381.401 13.3619 381.661 14.3431L382.628 14.087ZM380.117 8.43014C379.823 7.99855 379.509 7.58514 379.175 7.19103L378.412 7.83765C378.723 8.2044 379.016 8.58992 379.291 8.99341L380.117 8.43014ZM379.175 7.19103C378.82 6.77205 378.459 6.37462 378.095 5.99822L377.377 6.6943C377.725 7.05421 378.071 7.4351 378.412 7.83765L379.175 7.19103ZM375.707 3.87904C374.82 3.21099 373.911 2.64965 372.984 2.18832L372.539 3.08363C373.409 3.51675 374.266 4.04542 375.105 4.67771L375.707 3.87904ZM369.973 1.04964C368.929 0.771583 367.87 0.60355 366.802 0.535355L366.738 1.53333C367.744 1.59752 368.738 1.75549 369.716 2.01595L369.973 1.04964ZM363.598 0.616901C362.555 0.732166 361.506 0.930544 360.458 1.20257L360.709 2.17054C361.715 1.90948 362.716 1.72041 363.708 1.61086L363.598 0.616901ZM357.438 2.18203C356.469 2.55694 355.503 2.98756 354.542 3.46672L354.988 4.36169C355.924 3.89514 356.862 3.47734 357.799 3.11459L357.438 2.18203ZM351.769 4.98694C350.878 5.51925 349.993 6.08866 349.116 6.68943L349.682 7.51417C350.542 6.92433 351.41 6.36632 352.282 5.84555L351.769 4.98694ZM346.568 8.54139C345.74 9.1762 344.922 9.83527 344.117 10.5135L344.762 11.2783C345.556 10.6093 346.361 9.95983 347.176 9.33491L346.568 8.54139ZM341.756 12.5878C340.981 13.2961 340.22 14.0185 339.476 14.75L340.177 15.463C340.913 14.7396 341.665 14.0256 342.43 13.3259L341.756 12.5878ZM337.275 16.9891C336.545 17.7559 335.836 18.5272 335.148 19.2975L335.894 19.9634C336.575 19.2007 337.277 18.4372 337.999 17.6783L337.275 16.9891ZM333.094 21.6709C332.404 22.4931 331.743 23.3078 331.112 24.1081L331.898 24.7267C332.522 23.9344 333.177 23.1278 333.86 22.3137L333.094 21.6709ZM329.214 26.6017C328.897 27.0325 328.592 27.4564 328.298 27.8724L329.114 28.4498C329.405 28.0389 329.707 27.6199 330.02 27.194L329.214 26.6017Z" fill="#1A093F"/>
</svg>
